<?xml version="1.0" encoding="utf-8"?>
<!-- Generator: Adobe Illustrator 18.0.0, SVG Export Plug-In . SVG Version: 6.00 Build 0)  -->
<!DOCTYPE svg PUBLIC "-//W3C//DTD SVG 1.1//EN" "http://www.w3.org/Graphics/SVG/1.1/DTD/svg11.dtd">
<svg version="1.1" id="Layer_1" xmlns="http://www.w3.org/2000/svg" xmlns:xlink="http://www.w3.org/1999/xlink" x="0px" y="0px"
	 viewBox="0 0 15 15" enable-background="new 0 0 15 15" xml:space="preserve">
<path id="CIRCLE__x2F__OK_2_" fill-rule="evenodd" clip-rule="evenodd" fill="#A9E250" d="M7.5,15C3.4,15,0,11.6,0,7.5
	C0,3.4,3.4,0,7.5,0C11.6,0,15,3.4,15,7.5C15,11.6,11.6,15,7.5,15z M7.5,1.4c-3.4,0-6.1,2.7-6.1,6.1c0,3.4,2.7,6.1,6.1,6.1
	c3.4,0,6.1-2.7,6.1-6.1C13.6,4.1,10.9,1.4,7.5,1.4z M10.8,6.1L7.1,9.9l0,0c-0.1,0.1-0.3,0.2-0.5,0.2c-0.2,0-0.4-0.1-0.5-0.2l0,0
	L4,7.8l0,0C3.8,7.6,3.8,7.5,3.8,7.3c0-0.4,0.3-0.7,0.7-0.7c0.2,0,0.4,0.1,0.5,0.2l0,0l1.6,1.6l3.3-3.3l0,0c0.1-0.1,0.3-0.2,0.5-0.2
	c0.4,0,0.7,0.3,0.7,0.7C11,5.8,10.9,6,10.8,6.1L10.8,6.1z M10.8,4.9C10.8,4.9,10.8,4.9,10.8,4.9C10.8,4.9,10.8,4.9,10.8,4.9
	L10.8,4.9z M4.9,10.8L4.9,10.8L4.9,10.8C4.9,10.8,4.9,10.8,4.9,10.8z M10.1,10.8L10.1,10.8L10.1,10.8L10.1,10.8z M10.8,10.1
	L10.8,10.1C10.8,10.1,10.8,10.1,10.8,10.1L10.8,10.1z"/>
</svg>
