<?xml version="1.0" encoding="utf-8"?>
<!-- Generator: Adobe Illustrator 18.0.0, SVG Export Plug-In . SVG Version: 6.00 Build 0)  -->
<!DOCTYPE svg PUBLIC "-//W3C//DTD SVG 1.1//EN" "http://www.w3.org/Graphics/SVG/1.1/DTD/svg11.dtd">
<svg version="1.1" id="Layer_1" xmlns="http://www.w3.org/2000/svg" xmlns:xlink="http://www.w3.org/1999/xlink" x="0px" y="0px"
	 viewBox="0 0 15 15" enable-background="new 0 0 15 15" xml:space="preserve">
<path id="CIRCLE__x2F__MINUS_6_" fill-rule="evenodd" clip-rule="evenodd" fill="#CCCCCC" d="M7.5,15C3.4,15,0,11.6,0,7.5
	S3.4,0,7.5,0C11.6,0,15,3.4,15,7.5S11.6,15,7.5,15z M7.5,1.4c-3.4,0-6.1,2.7-6.1,6.1c0,3.4,2.7,6.1,6.1,6.1c3.4,0,6.1-2.7,6.1-6.1
	C13.6,4.1,10.9,1.4,7.5,1.4z M10.5,8.2H9.1H8.2H6.8H5.9H4.5c-0.4,0-0.7-0.3-0.7-0.7c0-0.4,0.3-0.7,0.7-0.7h1.6h0.7h1.4h0.9h1.4
	c0.4,0,0.7,0.3,0.7,0.7C11.3,7.9,10.9,8.2,10.5,8.2z"/>
</svg>
